<svg width="88" height="72" viewBox="0 0 88 72" fill="none" xmlns="http://www.w3.org/2000/svg">
<path d="M33.6486 53.7186H23.7237C23.5994 53.7186 23.4838 53.6533 23.4179 53.5466L17.0031 43.0851L10.5883 53.5466C10.5224 53.6533 10.408 53.7186 10.2825 53.7186H0.360078C0.071715 53.7186 -0.0985683 53.3946 0.0617714 53.1524L11.9779 35.265L0.208439 17.9966C0.0443702 17.7555 0.214653 17.4279 0.504259 17.4279H10.4888C10.6119 17.4279 10.7275 17.4919 10.7933 17.5973L17.0043 27.5805L23.178 17.6564C23.2663 17.5145 23.4216 17.4279 23.5882 17.4279L33.5044 17.4279C33.794 17.4279 33.9643 17.7555 33.8002 17.9966L22.0308 35.2637L33.9481 53.1511C34.1085 53.3921 33.9382 53.7173 33.6498 53.7173L33.6486 53.7186ZM52.7812 0C42.5655 0 33.3664 4.394 26.9342 11.4118C26.8273 11.5273 26.9106 11.7194 27.0684 11.7194L28.6308 11.7194C28.7166 11.7194 28.7986 11.688 28.8632 11.6303C34.4677 6.70525 41.8135 3.71858 49.859 3.71858C67.4417 3.71858 81.6958 17.9803 81.6958 35.5738C81.6958 53.1674 67.443 67.4291 49.859 67.4291C41.8147 67.4291 34.4677 64.4412 28.8632 59.5174C28.7986 59.4609 28.7166 59.4295 28.6308 59.4295H27.0684C26.9118 59.4295 26.8286 59.6203 26.9342 59.7371C33.3664 66.7549 42.5667 71.1489 52.7812 71.1489C72.2333 71.1489 88 55.2213 88 35.5751C88 15.9289 72.232 0 52.7812 0ZM66.7494 38.8041L40.2051 38.8041C40.4375 42.8679 43.9911 46.3743 49.1419 46.3743C53.1093 46.3743 55.6375 44.7812 57.1725 42.3318C57.2732 42.1711 57.4758 42.1121 57.6424 42.1987L64.3518 45.7152C64.5407 45.8144 64.6066 46.0579 64.4885 46.2374C61.2954 51.1123 55.8065 54.335 49.0897 54.335H49.0399C38.4066 54.335 31.1254 46.4747 31.1254 35.5726C31.1254 24.6704 38.4066 16.8102 49.0399 16.8102C59.6733 16.8102 67.3323 25.2103 67.3323 35.5726C67.3323 36.5355 67.2689 37.4821 67.1273 38.4036C67.0924 38.5919 66.9619 38.8041 66.7494 38.8041ZM58.4092 31.4598C57.8537 29.1523 55.1739 24.7696 49.47 24.7696C43.7661 24.7696 41.1721 28.2321 40.5034 31.4598L58.4092 31.4598Z" fill="white"/>
</svg>
